<?xml version="1.0" encoding="utf-8"?>
<svg viewBox="0 0 400 399.6062992125984" width="400" height="399.6062992125984" xmlns="http://www.w3.org/2000/svg">
  <g id="svgg">
    <path id="path0" d="M 251.378 87.058 C 235.397 96.305 234.197 96.997 210.039 110.902 C 188.282 123.424 178.971 128.771 155.315 142.327 C 144.055 148.779 131.565 155.939 127.559 158.237 C 123.553 160.535 108.945 168.583 109.004 168.796 C 109.062 169.009 123.418 168.273 127 174.487 L 118.803 194.333 L 136.736 183.892 C 138.51 182.851 150.502 175.925 163.386 168.501 C 176.27 161.076 196.555 149.382 208.465 142.512 C 220.374 135.643 241.28 123.605 254.921 115.76 C 268.563 107.915 279.768 101.456 279.822 101.405 C 279.973 101.264 266.759 78.371 266.535 78.387 C 266.427 78.394 259.606 82.296 251.378 87.058 M 305.445 120.062 C 298.48 121.336 298.47 121.342 256.416 145.592 C 235.456 157.678 205.687 174.82 190.263 183.685 C 169.244 195.765 162.272 199.951 162.433 200.394 C 162.85 201.54 175.004 222.429 175.257 222.435 C 175.398 222.438 187.091 215.776 201.241 207.629 C 215.391 199.482 241.053 184.751 258.268 174.893 C 275.482 165.036 293.023 154.987 297.247 152.564 C 306.074 147.501 308.118 146.691 312.029 146.709 C 323.856 146.764 329.536 160.628 321.401 169.586 C 319.75 171.405 308.604 178.047 256.496 208.26 C 240.906 217.3 220.177 229.379 210.433 235.102 C 200.689 240.825 188.597 247.89 183.563 250.801 C 178.529 253.712 162.089 262.815 162.089 262.957 C 162.089 263.269 170.241 289.244 170.689 289.709 C 170.864 289.89 191.934 276.732 197.101 273.713 C 202.268 270.694 215 263.302 225.394 257.285 C 235.787 251.268 253.415 240.99 264.567 234.445 C 275.719 227.901 295.625 216.302 308.805 208.67 C 321.984 201.037 333.854 194.022 335.183 193.079 C 363.233 173.185 354.882 129.698 321.341 121.002 C 317.157 119.918 308.901 119.429 305.445 120.062" stroke="none" fill="#050505" fill-rule="evenodd" style=""/>
    <path id="path1" d="M 311.122 146.728 C 311.501 146.827 312.121 146.827 312.5 146.728 C 312.879 146.629 312.569 146.548 311.811 146.548 C 311.053 146.548 310.743 146.629 311.122 146.728 M 352.06 159.055 C 352.06 159.813 352.141 160.123 352.24 159.744 C 352.339 159.365 352.339 158.745 352.24 158.366 C 352.141 157.987 352.06 158.297 352.06 159.055 M 352.06 162.598 C 352.06 163.356 352.141 163.666 352.24 163.287 C 352.339 162.908 352.339 162.288 352.24 161.909 C 352.141 161.531 352.06 161.841 352.06 162.598 M 109.055 168.726 C 84.647 182.795 84.021 183.217 76.969 190.328 C 58.516 208.933 52.25 238.341 61.779 261.614 C 75.862 296.008 111.965 313.138 146.332 301.732 C 152.661 299.631 154.892 298.489 172.057 288.562 L 187.771 279.474 L 186.84 278.025 C 185.864 276.506 176.158 259.717 174.913 257.394 L 174.193 256.052 L 159.439 264.677 C 138.617 276.85 135.527 278.055 125.197 278.031 C 88.882 277.948 70.947 234.122 96.806 208.656 C 100.744 204.778 101.441 204.32 117.335 195.152 C 125.462 190.465 133.762 186.297 133.52 185.908 C 133.145 185.306 132.808 184.529 126.859 174.223 C 123.238 167.949 120.464 162.662 120.374 162.51 C 120.019 161.908 121.528 161.536 109.055 168.726 M 320.645 170.177 L 319.488 171.457 L 320.768 170.3 C 321.471 169.664 322.047 169.089 322.047 169.021 C 322.047 168.717 321.722 168.984 320.645 170.177" stroke="none" fill="#0d8cf3" fill-rule="evenodd" style=""/>
    <path id="path2" d="M186.220 0.238 C 185.463 0.322,182.805 0.580,180.315 0.811 C 65.821 11.414,-16.428 118.809,2.589 232.874 C 21.274 344.952,129.546 418.600,241.535 395.408 C 345.857 373.804,415.018 272.342,397.411 166.732 C 382.680 78.369,312.178 11.865,221.654 0.943 C 216.648 0.339,190.058 -0.190,186.220 0.238 M273.390 89.831 C 279.653 100.678,279.980 101.346,279.282 101.861 C 278.876 102.160,275.709 104.022,272.244 105.999 C 265.802 109.673,191.899 152.187,154.724 173.604 C 95.895 207.497,101.311 204.219,96.806 208.656 C 68.330 236.700,93.613 284.864,132.873 277.364 C 136.337 276.702,137.534 276.337,141.535 274.717 C 143.458 273.939,156.415 266.479,193.898 244.572 C 220.509 229.018,226.771 225.370,247.441 213.381 C 257.618 207.478,271.703 199.278,278.740 195.159 C 285.778 191.040,297.736 184.061,305.315 179.649 C 321.436 170.264,322.962 169.026,324.448 164.135 C 327.096 155.418,321.601 147.476,312.549 146.934 C 307.628 146.640,308.054 146.449,288.189 157.880 C 265.593 170.882,259.046 174.643,243.307 183.663 C 216.330 199.126,193.924 211.992,179.733 220.171 C 177.140 221.666,174.961 222.744,174.891 222.567 C 174.821 222.389,171.874 217.283,168.342 211.220 C 163.557 203.005,162.033 200.079,162.358 199.733 C 162.599 199.478,165.098 197.954,167.913 196.347 C 170.728 194.741,179.675 189.609,187.795 184.944 C 195.915 180.279,207.874 173.409,214.370 169.678 C 220.866 165.946,229.636 160.900,233.858 158.464 C 306.043 116.825,299.423 120.218,309.308 119.789 C 349.597 118.041,368.030 168.777,335.827 192.783 C 334.636 193.671,322.677 200.777,309.252 208.576 C 295.827 216.374,278.730 226.337,271.260 230.714 C 263.789 235.092,248.199 244.172,236.614 250.893 C 210.195 266.218,190.804 277.536,188.770 278.816 C 184.987 281.198,156.629 297.471,154.181 298.665 C 139.230 305.958,119.796 307.134,103.543 301.731 C 84.770 295.489,69.737 281.049,61.779 261.614 C 51.363 236.173,60.095 203.349,82.031 185.487 C 87.115 181.347,86.666 181.620,119.094 162.983 C 128.622 157.508,139.075 151.493,142.323 149.618 C 151.623 144.248,162.453 138.023,196.457 118.501 C 213.888 108.494,233.465 97.245,239.961 93.503 C 262.058 80.777,266.321 78.346,266.540 78.346 C 266.660 78.346,269.743 83.515,273.390 89.831 " stroke="none" fill="#fbfbfb" fill-rule="evenodd" style=""/>
  </g>
</svg>