<svg width="400" height="400" viewBox="0 0 400 400" xmlns="http://www.w3.org/2000/svg">
  <path style="fill:#fff;fill-opacity:1;stroke-width:1.01758" transform="rotate(-5)" d="M381.808 216.67a200 200 0 0 1-200 200 200 200 0 0 1-200.001-200 200 200 0 0 1 400.001 0z"/>
  <g style="display:inline">
    <path style="fill:#0a8af7;fill-opacity:1" d="M89.093 190.204a68.485 68.485 0 0 0-25.066 93.552 68.485 68.485 0 0 0 93.552 25.069l-13.499-23.38a41.49 40.21 60 0 1-55.568-15.825 41.49 40.21 60 0 1 14.079-56.036Zm86.426 77.091 13.498 23.379-31.438 18.15-13.498-23.378zm-54.988-95.241 13.498 23.379-31.438 18.15-13.499-23.379z" transform="translate(-5.455 -1.57)"/>
    <path style="display:inline;fill:#000;fill-opacity:1;stroke-width:.998568" d="M353.301 148.493c-11.319-19.608-36.435-26.3-56.097-14.946l13.498 23.379c6.717-3.877 15.274-1.631 19.16 5.098 3.886 6.731 1.554 15.266-5.164 19.145l13.498 23.379c19.663-11.351 26.425-36.448 15.106-56.054zm-28.604 32.675 13.498 23.379-149.179 86.127-13.498-23.379zm-27.494-47.621 13.498 23.379-134.153 77.453L163.05 211Zm-27.494-47.622 13.499 23.379-149.179 86.129-13.498-23.379Z" transform="translate(-5.455 -1.57)"/>
  </g>
</svg>